<svg width="180" height="25" viewBox="0 0 180 25" fill="none" xmlns="http://www.w3.org/2000/svg">
<path d="M13.2995 18.1541C13.2995 17.2389 12.9763 16.5389 12.3301 16.0543C11.6838 15.5589 10.5204 15.042 8.84001 14.5036C7.15961 13.9545 5.82929 13.4159 4.84907 12.8883C2.17767 11.4453 0.841966 9.50161 0.841966 7.05714C0.841966 5.78644 1.19743 4.65574 1.90838 3.66503C2.63007 2.66356 3.65879 1.88283 4.99449 1.32287C6.34096 0.7629 7.84901 0.48291 9.51864 0.48291C11.199 0.48291 12.6963 0.789819 14.0104 1.40363C15.3246 2.00667 16.3425 2.86278 17.0643 3.97194C17.7967 5.0811 18.1629 6.34102 18.1629 7.75171H13.3157C13.3157 6.67485 12.9763 5.84028 12.2977 5.24802C11.6191 4.64498 10.6658 4.34346 9.43784 4.34346C8.25295 4.34346 7.33196 4.59652 6.67489 5.10264C6.0178 5.59799 5.68926 6.25487 5.68926 7.0733C5.68926 7.83791 6.07167 8.47858 6.83645 8.99547C7.61202 9.51236 8.74845 9.997 10.2457 10.4492C13.0032 11.2785 15.0123 12.3067 16.2725 13.5345C17.5328 14.7621 18.1629 16.2912 18.1629 18.1219C18.1629 20.1572 17.3927 21.7562 15.8525 22.9193C14.3121 24.0715 12.2385 24.6476 9.63174 24.6476C7.82208 24.6476 6.17399 24.3192 4.68749 23.6622C3.20099 22.9947 2.06457 22.0847 1.27821 20.9325C0.502647 19.7802 0.114868 18.4449 0.114868 16.9265H4.97833C4.97833 19.5217 6.52947 20.8193 9.63174 20.8193C10.7843 20.8193 11.6838 20.5879 12.3301 20.1248C12.9763 19.651 13.2995 18.9941 13.2995 18.1541ZM59.268 20.4317H69.5606V24.3246H54.4208V0.805974H59.268V20.4317ZM85.9605 19.4787H77.4616L75.8459 24.3246H70.6916L79.4491 0.805974H83.9409L92.7468 24.3246H87.5925L85.9605 19.4787ZM78.7704 15.5535H84.6518L81.695 6.75023L78.7704 15.5535ZM103.653 15.7151H99.7916V24.3246H94.9442V0.805974H103.686C106.465 0.805974 108.608 1.42517 110.116 2.66356C111.624 3.90194 112.378 5.65183 112.378 7.91331C112.378 9.51774 112.028 10.8585 111.328 11.9353C110.639 13.0015 109.588 13.8521 108.177 14.4875L113.267 24.0984V24.3246H108.064L103.653 15.7151ZM99.7916 11.7899H103.702C104.919 11.7899 105.861 11.483 106.529 10.8692C107.197 10.2447 107.531 9.38859 107.531 8.30091C107.531 7.19174 107.213 6.31949 106.578 5.68414C105.953 5.04879 104.989 4.73113 103.686 4.73113H99.7916V11.7899ZM138.473 14.1321H129.166V20.4317H140.089V24.3246H124.319V0.805974H140.057V4.73113H129.166V10.3362H138.473V14.1321ZM151.351 8.9147L155.761 0.805974H161.336L154.486 12.4683L161.514 24.3246H155.874L151.351 16.0865L146.827 24.3246H141.187L148.217 12.4683L141.365 0.805974H146.94L151.351 8.9147ZM178.124 14.1321H168.817V20.4317H179.74V24.3246H163.969V0.805974H179.707V4.73113H168.817V10.3362H178.124V14.1321Z" fill="white"/>
</svg>
